<svg width="100" height="106" viewBox="0 0 100 106" fill="none" xmlns="http://www.w3.org/2000/svg">
<path d="M50 3L93.3013 28V78L50 103L6.69873 78V28L50 3Z" fill="black" stroke="#8864D5" stroke-width="5"/>
<path d="M31.8352 76V29.4545H51.0625C54.5473 29.4545 57.5549 30.0833 60.0852 31.3409C62.6307 32.5833 64.5928 34.3712 65.9716 36.7045C67.3504 39.0227 68.0398 41.7727 68.0398 44.9545C68.0398 48.1818 67.3352 50.9242 65.9261 53.1818C64.517 55.4242 62.517 57.1364 59.9261 58.3182C57.3352 59.4848 54.267 60.0682 50.7216 60.0682H38.5625V51.2045H48.6307C50.3277 51.2045 51.7443 50.9848 52.8807 50.5455C54.0322 50.0909 54.9034 49.4091 55.4943 48.5C56.0852 47.5758 56.3807 46.3939 56.3807 44.9545C56.3807 43.5151 56.0852 42.3258 55.4943 41.3864C54.9034 40.4318 54.0322 39.7197 52.8807 39.25C51.7292 38.7652 50.3125 38.5227 48.6307 38.5227H43.0852V76H31.8352ZM58.0398 54.7273L69.6307 76H57.358L45.9943 54.7273H58.0398Z" fill="#8864D5"/>
</svg>
